# xmcd CD database file
#
# Track frame offsets:
#	182
#	23837
#	48297
#	65220
#	84505
#	102902
#	116110
#	134822
#	146917
#	163135
#	177042
#	204147
#	221647
#
# Disc length: 3213 seconds
#
# Revision: 0
# Processed by: cddbd v1.5.2PL0 Copyright (c) Steve Scherf et al.
# Submitted via: CDex 1.51
#
DISCID=c40c8b0d
DTITLE=Compositeurs classiques - Prélude à la nuit
DYEAR=1995
DGENRE=New Age
TTITLE0=Claude Debussy - Claire de lune (NA)
TTITLE1=Claude Debussy - En bateau (NA)
TTITLE2=Eric Satie - Gymnopédie N°1 (NA)
TTITLE3=Gabriel Fauré - Pavane (NA)
TTITLE4=Claude Debussy - Rêveries (NA)
TTITLE5=Eric Satie - Gymnopédie N°3 (NA)
TTITLE6=Claude Debussy - Arabesque (NA)
TTITLE7=Eric Satie - Gnosienne N°3 (NA)
TTITLE8=M-J Canteloube - Lou Baylero (NA)
TTITLE9=Maurice Ravel - Pavane (NA)
TTITLE10=Claude Debussy - Nocturne (NA)
TTITLE11=Eric Satie - Gnosienne N°4 (NA)
TTITLE12=Maurice Ravel - Prélude à la nuit (NA)
EXTD=YEAR: 1995
EXTT0=
EXTT1=
EXTT2=
EXTT3=
EXTT4=
EXTT5=
EXTT6=
EXTT7=
EXTT8=
EXTT9=
EXTT10=
EXTT11=
EXTT12=
PLAYORDER=
